<?xml version="1.0" standalone="no"?>
<!DOCTYPE svg PUBLIC "-//W3C//DTD SVG 20010904//EN"
 "http://www.w3.org/TR/2001/REC-SVG-20010904/DTD/svg10.dtd">
<svg version="1.0" xmlns="http://www.w3.org/2000/svg"
 width="500.000000pt" height="500.000000pt" viewBox="0 0 500.000000 500.000000"
 preserveAspectRatio="xMidYMid meet">
<metadata>
Created by potrace 1.11, written by Peter Selinger 2001-2013
</metadata>
<g transform="translate(0.000000,500.000000) scale(0.100000,-0.100000)"
fill="#000000" stroke="none">
<path d="M2495 4564 c-25 -23 -161 -177 -193 -219 -137 -181 -231 -337 -325
-545 -66 -143 -146 -408 -171 -560 -3 -19 -7 -44 -10 -55 -2 -11 -7 -47 -10
-80 -4 -33 -9 -71 -11 -85 -4 -22 4 -29 58 -59 174 -95 412 -270 571 -422 49
-46 92 -84 96 -84 4 0 44 34 88 77 163 153 444 360 595 437 41 21 46 27 42 50
-2 14 -6 53 -10 86 -6 64 -10 101 -19 150 -3 17 -8 46 -11 65 -18 106 -80 312
-135 450 -99 250 -284 542 -467 739 -67 72 -68 73 -88 55z"/>
<path d="M423 2907 c-9 -15 -2 -198 12 -292 2 -16 7 -52 11 -80 32 -268 163
-641 315 -905 37 -64 167 -252 222 -319 128 -160 355 -370 532 -493 228 -158
517 -290 780 -357 177 -45 195 -46 309 -23 370 78 734 252 1036 495 114 92
326 310 413 425 175 230 304 470 395 737 35 103 87 306 98 380 3 28 8 58 10
67 1 9 6 48 9 85 4 37 9 81 10 96 4 28 7 146 6 178 -1 15 -13 16 -88 13 -155
-6 -242 -16 -418 -50 -44 -8 -212 -53 -264 -71 -480 -161 -886 -454 -1215
-873 -6 -8 -29 -41 -51 -72 -22 -32 -42 -58 -45 -58 -3 0 -35 42 -71 93 -101
141 -272 325 -419 452 -40 34 -189 147 -205 155 -5 3 -35 22 -66 42 -224 147
-555 281 -827 334 -43 9 -86 17 -97 20 -21 4 -46 7 -160 19 -114 11 -225 13
-232 2z"/>
</g>
</svg>
