<?xml version="1.0" encoding="UTF-8" standalone="no"?>
<svg
   xmlns:dc="http://purl.org/dc/elements/1.1/"
   xmlns:cc="http://creativecommons.org/ns#"
   xmlns:rdf="http://www.w3.org/1999/02/22-rdf-syntax-ns#"
   xmlns:svg="http://www.w3.org/2000/svg"
   xmlns="http://www.w3.org/2000/svg"
   xmlns:sodipodi="http://sodipodi.sourceforge.net/DTD/sodipodi-0.dtd"
   xmlns:inkscape="http://www.inkscape.org/namespaces/inkscape"
   fill="#000000"
   height="18"
   viewBox="0 0 24 24"
   width="18"
   id="svg2"
   version="1.1"
   inkscape:version="0.91 r13725"
   sodipodi:docname="ic_jardin.svg"
   inkscape:export-filename="C:\Users\Alejandro\Desktop\e-Vivero\media\ic_jardin.png"
   inkscape:export-xdpi="80"
   inkscape:export-ydpi="80">
  <metadata
     id="metadata14">
    <rdf:RDF>
      <cc:Work
         rdf:about="">
        <dc:format>image/svg+xml</dc:format>
        <dc:type
           rdf:resource="http://purl.org/dc/dcmitype/StillImage" />
      </cc:Work>
    </rdf:RDF>
  </metadata>
  <defs
     id="defs12" />
  <sodipodi:namedview
     pagecolor="#ffffff"
     bordercolor="#666666"
     borderopacity="1"
     objecttolerance="10"
     gridtolerance="10"
     guidetolerance="10"
     inkscape:pageopacity="0"
     inkscape:pageshadow="2"
     inkscape:window-width="1600"
     inkscape:window-height="837"
     id="namedview10"
     showgrid="false"
     inkscape:zoom="13.111111"
     inkscape:cx="-2.4025424"
     inkscape:cy="9"
     inkscape:window-x="-8"
     inkscape:window-y="-8"
     inkscape:window-maximized="1"
     inkscape:current-layer="svg2" />
  <path
     d="M0 0h24v24H0V0zm13.97 21.49c-.63.23-1.29.4-1.97.51.68-.12 1.33-.29 1.97-.51zM12 22c-.68-.12-1.33-.29-1.97-.51.64.22 1.29.39 1.97.51z"
     fill="none"
     id="path4" />
  <path
     d="M8.55 12c-1.07-.71-2.25-1.27-3.53-1.61 1.28.34 2.46.9 3.53 1.61zm10.43-1.61c-1.29.34-2.49.91-3.57 1.64 1.08-.73 2.28-1.3 3.57-1.64z"
     fill="#607D8B"
     id="path6" />
  <path
     style="fill:#28861a;fill-opacity:1"
     d="M 15.49,9.63 C 15.31,6.84 14.18,4.12 12.06,2 9.92,4.14 8.74,6.86 8.51,9.63 c 1.28,0.68 2.46,1.56 3.49,2.63 1.03,-1.06 2.21,-1.94 3.49,-2.63 z"
     id="path4148" />
  <path
     style="fill:#1b5811;fill-opacity:1"
     d="m 8.99,12.28 c -0.14,-0.1 -0.3,-0.19 -0.45,-0.29 0.15,0.11 0.31,0.19 0.45,0.29 z"
     id="path4146" />
  <path
     style="fill:#1b5811;fill-opacity:1"
     d="m 15.41,12.03 c -0.13,0.09 -0.27,0.16 -0.4,0.26 0.13,-0.1 0.27,-0.17 0.4,-0.26 z"
     id="path4144" />
  <path
     style="fill:#1b5811;fill-opacity:1"
     d="M 12,15.45 C 9.85,12.17 6.18,10 2,10 c 0,5.32 3.36,9.82 8.03,11.49 0.63,0.23 1.29,0.4 1.97,0.51 0.68,-0.12 1.33,-0.29 1.97,-0.51 C 18.64,19.82 22,15.32 22,10 c -4.18,0 -7.85,2.17 -10,5.45 z"
     id="path8" />
</svg>
