<?xml version="1.0" encoding="UTF-8" standalone="no"?>
<!-- Created with Inkscape (http://www.inkscape.org/) -->

<svg
   xmlns:dc="http://purl.org/dc/elements/1.1/"
   xmlns:cc="http://creativecommons.org/ns#"
   xmlns:rdf="http://www.w3.org/1999/02/22-rdf-syntax-ns#"
   xmlns:svg="http://www.w3.org/2000/svg"
   xmlns="http://www.w3.org/2000/svg"
   xmlns:sodipodi="http://sodipodi.sourceforge.net/DTD/sodipodi-0.dtd"
   xmlns:inkscape="http://www.inkscape.org/namespaces/inkscape"
   height="33.886mm"
   width="126.02mm"
   version="1.1"
   viewBox="0 0 446.53336 120.0697"
   id="svg2"
   inkscape:version="0.91 r13725"
   sodipodi:docname="logo_jardin_opt.svg">
  <defs
     id="defs60" />
  <sodipodi:namedview
     pagecolor="#ffffff"
     bordercolor="#666666"
     borderopacity="1"
     objecttolerance="10"
     gridtolerance="10"
     guidetolerance="10"
     inkscape:pageopacity="0"
     inkscape:pageshadow="2"
     inkscape:window-width="1600"
     inkscape:window-height="837"
     id="namedview58"
     showgrid="false"
     inkscape:zoom="1.8242705"
     inkscape:cx="464.72302"
     inkscape:cy="-62.697046"
     inkscape:window-x="-8"
     inkscape:window-y="-8"
     inkscape:window-maximized="1"
     inkscape:current-layer="svg2" />
  <title
     id="title4">Logo Vivero el Jardin</title>
  <metadata
     id="metadata6">
    <rdf:RDF>
      <cc:Work
         rdf:about="">
        <dc:format>image/svg+xml</dc:format>
        <dc:type
           rdf:resource="http://purl.org/dc/dcmitype/StillImage" />
        <dc:title>Logo Vivero el Jardin</dc:title>
      </cc:Work>
    </rdf:RDF>
  </metadata>
  <g
     transform="translate(108.003,94.65864)"
     class="logo-entity"
     id="g12">
    <g
       class="logo-entity-inner"
       id="g14">
      <g
         style="font-size:80px;font-family:Pacifico;fill:#000000"
         id="text16">
        <path
           d="m 18.203125,-10.653796 q -3.671875,0 -6.445312,-1.328125 -2.7343755,-1.328125 -4.570313,-3.554688 -1.8359375,-2.265625 -2.7734375,-5.195312 -0.8984375,-2.96875 -0.8984375,-6.210938 0,-2.1875 0.4296875,-4.609375 0.4296875,-2.460937 1.2890625,-4.804687 0.8984375,-2.34375 2.2265625,-4.453125 1.328125,-2.148438 3.0859375,-3.75 1.796875,-1.640625 3.984375,-2.578125 2.226562,-0.976563 4.921875,-0.976563 2.1875,0 4.0625,0.703125 1.875,0.703125 3.242187,1.992188 1.40625,1.25 2.1875,3.046875 0.78125,1.796875 0.78125,4.023437 0,2.421875 -1.210937,4.84375 -1.171875,2.421875 -3.28125,4.570313 -2.109375,2.148437 -5.039063,3.828125 -2.890625,1.679687 -6.289062,2.617187 0.585938,1.054688 1.132813,1.757813 0.585937,0.703125 1.171874,1.09375 0.585938,0.390625 1.210938,0.546875 0.664062,0.15625 1.40625,0.15625 2.34375,0 4.921875,-0.9375 2.617187,-0.9375 5.078125,-2.34375 2.460937,-1.40625 4.648437,-3.046875 2.1875,-1.679688 3.710938,-3.164063 l 5.039062,5.234375 q -3.4375,3.554688 -7.304687,6.289063 -1.679688,1.171875 -3.632813,2.304687 -1.914062,1.132813 -4.0625,2.03125 -2.109375,0.859375 -4.414062,1.40625 -2.265625,0.507813 -4.609375,0.507813 z m -5.195312,-18.359375 q 1.40625,0 3.046874,-0.703125 1.679688,-0.742188 3.085938,-1.875 1.445312,-1.132813 2.421875,-2.460938 0.976562,-1.328125 0.976562,-2.578125 0,-1.757812 -0.664062,-2.890625 -0.625,-1.132812 -1.5625,-1.132812 -1.679688,0 -2.890625,0.625 -1.171875,0.625 -1.992187,1.640625 -0.78125,0.976562 -1.289063,2.265625 -0.46875,1.25 -0.742187,2.539062 -0.234375,1.289063 -0.3125,2.5 -0.07813,1.210938 -0.07813,2.070313 z"
           style="font-size:80px;font-family:Pacifico;fill:#000000"
           id="path3522" />
        <path
           d="m 44.492187,-10.653796 q -2.109375,0 -3.945312,-1.835938 -1.796875,-1.875 -3.164063,-5 -1.328125,-3.125 -2.109375,-7.226562 -0.742187,-4.140625 -0.742187,-8.671875 0,-3.476563 0.507812,-7.539063 0.507813,-4.101562 1.484375,-8.4375 0.976563,-4.335937 2.304688,-8.710937 1.367187,-4.375 3.046875,-8.398438 1.71875,-4.023437 3.710937,-7.5 1.992188,-3.515625 4.179688,-6.09375 2.1875,-2.617187 4.570312,-4.101562 2.382813,-1.484375 4.84375,-1.484375 1.679688,0 2.773438,0.78125 1.09375,0.742187 1.71875,1.992187 0.625,1.25 0.859375,2.851563 0.273437,1.5625 0.273437,3.203125 0,3.671875 -0.859375,7.5 -0.820312,3.789062 -2.265625,7.65625 -1.40625,3.828125 -3.28125,7.695312 -1.875,3.867188 -3.90625,7.695313 -2.03125,3.789062 -4.101562,7.5 -2.03125,3.671875 -3.828125,7.1875 -0.195313,0.390625 -0.429688,1.015625 -0.195312,0.625 -0.390625,1.367187 -0.195312,0.703125 -0.390625,1.523438 -0.195312,0.820312 -0.3125,1.601562 l 0,0.546875 q 0,1.015625 0.195313,1.992188 0.234375,0.9375 0.546875,1.71875 0.3125,0.742187 0.664062,1.210937 0.351563,0.429688 0.664063,0.429688 0.742187,0 1.679687,-0.3125 0.976563,-0.3125 2.03125,-0.820313 1.09375,-0.546875 2.226563,-1.210937 1.132812,-0.703125 2.1875,-1.40625 2.460937,-1.640625 5.15625,-3.789063 l 3.203125,8.203125 q -3.476563,2.5 -6.875,4.453125 -1.484375,0.820313 -3.085938,1.640625 -1.5625,0.78125 -3.164062,1.40625 -1.601563,0.625 -3.125,1.015625 -1.523438,0.351563 -2.851563,0.351563 z m 0.03906,-31.25 q 1.757812,-3.125 3.710937,-7.03125 1.992188,-3.90625 3.75,-8.046875 1.757813,-4.140625 3.046875,-8.242188 1.289063,-4.140625 1.640625,-7.695312 0,-1.132813 -0.07813,-1.914063 -0.03906,-0.820312 -0.351562,-0.820312 -1.132813,0 -2.460938,1.484375 -1.289062,1.445312 -2.617187,3.945312 -1.289063,2.5 -2.5,5.820313 -1.171875,3.320312 -2.109375,7.070312 -0.9375,3.75 -1.484375,7.734375 -0.546875,3.945313 -0.546875,7.695313 z"
           style="font-size:80px;font-family:Pacifico;fill:#000000"
           id="path3524" />
        <path
           d="m 97.03125,-0.6537962 q 0,-5.2734375 1.992187,-10.7421878 2.031253,-5.507812 5.742193,-10.390625 3.71093,-4.921875 8.94531,-8.75 5.23437,-3.867187 11.67969,-5.859375 -3.32032,-2.695312 -6.21094,-5.664062 -2.89063,-2.96875 -5.03906,-6.054688 -2.14844,-3.125 -3.39844,-6.25 -1.21094,-3.164062 -1.21094,-6.289062 0,-3.984375 0.85938,-7.578125 0.89843,-3.59375 2.42187,-6.640625 1.5625,-3.085938 3.67188,-5.546875 2.10937,-2.5 4.53125,-4.21875 2.42187,-1.757813 5.03906,-2.695313 2.65625,-0.9375 5.3125,-0.9375 3.51562,0 6.75781,1.796875 3.28125,1.796875 5.82031,5.703125 2.53906,3.90625 4.0625,10.117188 1.52344,6.210937 1.52344,15 0,6.367187 -0.46875,12.109375 -0.42969,5.703125 -1.28906,10.9375 2.38281,1.484375 4.80468,2.890625 2.46094,1.40625 4.96094,2.8125 0.50781,0.3125 1.25,0.742187 0.78125,0.429688 1.48438,0.9375 0.74218,0.46875 1.25,0.976563 0.50781,0.46875 0.50781,0.859375 0,0.390625 -0.35156,0.78125 -0.3125,0.351562 -0.78125,0.703125 -0.42969,0.3125 -0.89844,0.546875 -0.42969,0.234375 -0.66406,0.351562 -0.66407,0.351563 -1.71875,0.351563 -2.1875,-0.03906 -5.15625,-0.859375 -2.92969,-0.820313 -6.40625,-2.304688 -1.71875,7.226563 -4.14063,13.203125 -2.38281,6.0156253 -5.23437,10.7812503 -2.85157,4.765625 -6.05469,8.28125 -3.16406,3.5546877 -6.44531,5.8984377 -3.24219,2.34375 -6.48438,3.515625 -3.20312,1.171875 -6.17187,1.171875 -3.08594,0 -5.74219,-1.25 -2.61719,-1.25 -4.57031,-3.75 Q 99.257812,11.572766 98.125,7.9008913 97.03125,4.2290163 97.03125,-0.6537962 Z m 10,2.5 q 0,3.984375 1.52344,6.015625 1.5625,2.0703125 4.10156,2.0703125 2.57813,0 5.82031,-2.265625 3.28125,-2.265625 6.5625,-7.03125 3.28125,-4.7265625 6.25,-12.0312503 3.00781,-7.304687 5.07813,-17.382812 l -1.44532,-0.898438 q -3.98437,0.78125 -7.61718,2.734375 -3.59375,1.914063 -6.71875,4.570313 -3.08594,2.65625 -5.58594,5.859375 -2.5,3.164062 -4.29687,6.40625 -1.75782,3.2421873 -2.73438,6.3281248 -0.9375,3.125 -0.9375,5.625 z m 12.5,-64.9999998 q 0,3.125 1.36719,6.210937 1.36719,3.085938 3.82812,6.132813 2.46094,3.007812 5.85938,5.976562 3.39843,2.96875 7.5,5.859375 0.66406,-5.429687 1.05468,-11.40625 0.39063,-6.015625 0.39063,-12.773437 0,-4.609375 -0.58594,-7.773438 -0.58594,-3.203125 -1.60156,-5.195312 -0.97656,-1.992188 -2.34375,-2.851563 -1.32813,-0.898437 -2.8125,-0.898437 -1.44531,0 -2.92969,0.703125 -1.48437,0.703125 -2.89062,1.953125 -1.40625,1.210937 -2.65625,2.851562 -1.25,1.640625 -2.1875,3.515625 -0.89844,1.835938 -1.44531,3.828125 -0.54688,1.953125 -0.54688,3.867188 z"
           style="font-size:80px;font-family:Pacifico;fill:#000000"
           id="path3526" />
        <path
           d="m 196.64062,-20.224109 q -0.89843,1.25 -2.42187,2.929688 -1.48438,1.679687 -3.35938,3.203125 -1.875,1.523437 -4.02343,2.578125 -2.14844,1.054687 -4.29688,1.054687 -2.57812,0 -4.29687,-1.640625 -1.71875,-1.679687 -2.96875,-4.84375 -0.9375,1.09375 -2.30469,2.226563 -1.36719,1.132812 -3.00781,2.070312 -1.60157,0.898438 -3.35938,1.484375 -1.75781,0.585938 -3.51562,0.585938 -1.875,0 -3.67188,-0.742188 -1.75781,-0.78125 -3.125,-2.1875 -1.36719,-1.445312 -2.1875,-3.476562 -0.82031,-2.070313 -0.82031,-4.648438 0,-2.929687 0.82031,-6.015625 0.82031,-3.085937 2.26563,-6.015625 1.44531,-2.96875 3.39843,-5.585937 1.99219,-2.617188 4.33594,-4.570313 2.34375,-1.953125 4.92188,-3.085937 2.61718,-1.171875 5.3125,-1.171875 0.89843,0 1.40625,0.351562 0.50781,0.351563 0.82031,0.820313 0.35156,0.429687 0.66406,0.859375 0.3125,0.429687 0.78125,0.625 0.46875,0.195312 0.9375,0.273437 0.50781,0.03906 1.01563,0.03906 0.42968,0 0.85937,0 0.46875,-0.03906 0.89844,-0.03906 0.58594,0 1.09375,0.117188 0.50781,0.117187 0.89844,0.507812 0.39062,0.390625 0.58593,1.09375 0.23438,0.703125 0.23438,1.914063 0,1.875 -0.39063,4.179687 -0.39062,2.265625 -0.85937,4.6875 -0.46875,2.382813 -0.85938,4.804688 -0.39062,2.382812 -0.39062,4.53125 0,1.835937 0.3125,2.890625 0.35156,1.015625 1.44531,1.015625 0.82031,0 1.71875,-0.390625 0.89844,-0.429688 1.79688,-1.09375 0.9375,-0.664063 1.83593,-1.484375 0.9375,-0.859375 1.75782,-1.757813 1.91406,-2.109375 3.86718,-4.765625 l 1.875,8.671875 z m -33.35937,-3.085937 q 0,0.976562 0.11719,1.914062 0.15625,0.898438 0.50781,1.640625 0.35156,0.703125 0.9375,1.171875 0.58594,0.429688 1.48437,0.429688 1.44532,0 2.61719,-1.25 1.17188,-1.25 2.03125,-3.007813 0.85938,-1.757812 1.36719,-3.632812 0.54687,-1.875 0.70312,-3.125 l 2.38282,-11.484375 q -1.60157,0 -3.125,0.820312 -1.52344,0.78125 -2.89063,2.148438 -1.32812,1.367187 -2.46094,3.125 -1.13281,1.757812 -1.95312,3.710937 -0.82031,1.914063 -1.28906,3.867188 -0.42969,1.953125 -0.42969,3.671875 z"
           style="font-size:80px;font-family:Pacifico;fill:#000000"
           id="path3528" />
        <path
           d="m 192.03125,-18.817859 q 0,-1.71875 0.19531,-3.984375 0.19531,-2.304687 0.50781,-4.84375 0.35157,-2.539062 0.78125,-5.15625 0.46875,-2.65625 0.97657,-5.039062 0.50781,-2.382813 1.01562,-4.375 0.50781,-1.992188 1.01563,-3.28125 0.3125,-0.859375 0.625,-1.367188 0.3125,-0.507812 0.70312,-0.78125 0.42969,-0.3125 1.01563,-0.390625 0.625,-0.117187 1.52343,-0.117187 1.01563,0 1.5625,0.117187 0.58594,0.07813 0.85938,0.46875 0.27344,0.351563 0.3125,1.054688 0.0781,0.703125 0.0781,1.914062 0,1.445313 0,3.515625 0,2.03125 0.0781,4.023438 l 0.42969,0 q 0.78125,-1.5625 1.75781,-3.476563 0.97656,-1.953125 2.26562,-3.632812 1.28907,-1.679688 2.92969,-2.8125 1.64063,-1.171875 3.78906,-1.171875 0.74219,0 1.44532,0.273437 0.70312,0.234375 1.21093,0.703125 0.54688,0.46875 0.85938,1.171875 0.3125,0.664063 0.3125,1.523438 0,0.664062 -0.19531,1.875 -0.19532,1.171875 -0.42969,2.5 -0.23438,1.289062 -0.42969,2.539062 -0.19531,1.210938 -0.19531,2.03125 0,1.40625 0.27344,2.34375 0.27343,0.9375 0.70312,1.523438 0.46875,0.546875 1.01563,0.78125 0.58593,0.234375 1.21093,0.234375 1.75782,0 3.63282,-0.78125 1.875,-0.78125 3.4375,-1.757813 1.83593,-1.132812 3.59375,-2.578125 l -0.58594,9.140625 q -1.01563,0.664063 -2.30469,1.484375 -1.28906,0.820313 -2.77344,1.5625 -1.44531,0.703125 -3.04687,1.210938 -1.5625,0.46875 -3.20313,0.46875 -2.92968,0 -4.72656,-1.171875 -1.79687,-1.210938 -2.85156,-3.125 -1.05469,-1.953125 -1.5625,-4.335938 -0.50781,-2.421875 -0.82031,-4.882812 l -0.625,0 -6.99219,19.492187 q -0.54688,1.523438 -1.05469,2.539063 -0.46875,0.976562 -0.97656,1.601562 -0.50781,0.625 -1.09375,0.898438 -0.58594,0.234375 -1.28906,0.234375 -1.60157,0 -2.57813,-0.664063 -0.97656,-0.703125 -1.52344,-1.835937 -0.50781,-1.171875 -0.70312,-2.617188 -0.15625,-1.484375 -0.15625,-3.046875 z"
           style="font-size:80px;font-family:Pacifico;fill:#000000"
           id="path3530" />
        <path
           d="m 242.96875,-40.185046 q -2.57813,1.25 -4.60938,3.320312 -1.99218,2.03125 -3.35937,4.414063 -1.32813,2.382812 -2.03125,4.804687 -0.70313,2.421875 -0.70313,4.375 0,0.78125 0.15625,1.5625 0.19532,0.78125 0.66407,1.40625 0.46875,0.625 1.32812,1.015625 0.85938,0.390625 2.22656,0.390625 0.70313,0 1.36719,-0.351562 0.70313,-0.351563 1.32813,-0.898438 0.625,-0.585937 1.17187,-1.289062 0.58594,-0.742188 1.05469,-1.523438 1.09375,-1.796875 1.99219,-4.0625 -0.11719,-0.546875 -0.19532,-1.71875 -0.0781,-1.210937 -0.11718,-2.65625 -0.0391,-1.484375 -0.0781,-3.046875 -0.0391,-1.5625 -0.0781,-2.851562 0,-1.289063 -0.0391,-2.109375 -0.0391,-0.820313 -0.0781,-0.78125 z m 26.875,21.875 q -2.77344,2.148437 -5.46875,3.828125 -1.13281,0.703125 -2.38281,1.40625 -1.25,0.664062 -2.46094,1.210937 -1.21094,0.507813 -2.38281,0.859375 -1.13282,0.3125 -2.10938,0.3125 -0.54687,0 -1.64062,-0.234375 -1.05469,-0.234375 -2.34375,-0.9375 -1.25,-0.742187 -2.53907,-2.109375 -1.25,-1.367187 -2.1875,-3.632812 -1.44531,1.40625 -3.08593,2.695312 -1.60157,1.25 -3.35938,2.1875 -1.71875,0.9375 -3.51562,1.523438 -1.75782,0.546875 -3.55469,0.546875 -2.53906,0 -4.41406,-1.09375 -1.83594,-1.09375 -3.08594,-2.890625 -1.21094,-1.835938 -1.83594,-4.140625 -0.58594,-2.304688 -0.58594,-4.765625 0,-2.5 0.625,-5.039063 0.66407,-2.578125 1.875,-4.960937 1.25,-2.421875 3.00782,-4.53125 1.75781,-2.148438 3.98437,-3.789063 2.22656,-1.679687 4.84375,-2.773437 2.61719,-1.09375 5.58594,-1.367188 0.11719,-5 0.89844,-9.882812 0.78125,-4.882813 2.07031,-9.296875 1.28906,-4.414063 3.00781,-8.164063 1.75781,-3.75 3.82813,-6.484375 2.07031,-2.734375 4.41406,-4.257812 2.34375,-1.5625 4.84375,-1.5625 1.83594,0 3.125,0.976562 1.28906,0.9375 2.07031,2.539063 0.82031,1.5625 1.17188,3.671875 0.35156,2.070312 0.35156,4.296875 0,1.367187 -0.11719,2.8125 -0.50781,5.507812 -1.875,10.429687 -1.36719,4.882813 -3.20312,9.53125 -1.83594,4.648438 -3.98438,9.21875 -2.14844,4.570313 -4.17969,9.492188 -0.19531,0.546875 -0.39062,1.328125 -0.19531,0.78125 -0.39063,1.71875 -0.15625,0.898437 -0.27343,1.875 -0.11719,0.9375 -0.11719,1.835937 0,1.132813 0.11719,2.148438 0.15625,1.015625 0.46875,1.835937 0.3125,0.78125 0.82031,1.25 0.54687,0.46875 1.32812,0.46875 0.74219,0 1.60157,-0.273437 0.89843,-0.3125 1.875,-0.820313 0.97656,-0.507812 1.95312,-1.132812 1.01563,-0.664063 1.95313,-1.328125 2.14843,-1.5625 4.49218,-3.554688 l 1.17188,9.023438 z m -8.51563,-50.195313 q 0.23438,-2.734375 0.23438,-4.335937 0,-2.109375 -0.39063,-2.929688 -0.35156,-0.820312 -1.05468,-0.820312 -1.25,0 -2.26563,1.601562 -1.01562,1.5625 -1.79687,4.023438 -0.78125,2.460937 -1.36719,5.429687 -0.58594,2.96875 -0.97656,5.742188 -0.39063,2.773437 -0.625,5 -0.23438,2.226562 -0.3125,3.164062 -0.15625,1.914063 -0.27344,3.710938 -0.0781,1.757812 -0.11719,3.242187 -0.0391,1.445313 -0.0391,2.539063 0,1.09375 0,1.679687 l 0,0.390625 q 2.22656,-5.078125 4.10156,-10.117187 0.78125,-2.148438 1.5625,-4.492188 0.82031,-2.382812 1.48438,-4.765625 0.66406,-2.382812 1.13281,-4.6875 0.50781,-2.304687 0.70312,-4.375 z"
           style="font-size:80px;font-family:Pacifico;fill:#000000"
           id="path3532" />
        <path
           d="m 291.40625,-18.974109 q -1.40625,1.289063 -3.51563,2.773438 -2.07031,1.445312 -4.49218,2.695312 -2.42188,1.210938 -4.96094,2.03125 -2.5,0.820313 -4.76563,0.820313 -2.03125,0 -3.4375,-0.546875 -1.36718,-0.585938 -2.22656,-1.601563 -0.85937,-1.015625 -1.25,-2.460937 -0.35156,-1.484375 -0.35156,-3.242188 0,-2.460937 0.54687,-5.703125 0.58594,-3.28125 1.40625,-6.757812 0.82032,-3.515625 1.71875,-6.992188 0.9375,-3.476562 1.64063,-6.40625 0.27344,-1.015625 1.09375,-1.71875 0.82031,-0.742187 1.83594,-1.171875 1.05468,-0.46875 2.14843,-0.664062 1.13282,-0.234375 2.03125,-0.234375 1.64063,0 2.22657,0.625 0.58593,0.585937 0.58593,1.601562 0,0.859375 -0.39062,2.5 -0.39063,1.601563 -0.97656,3.671875 -0.58594,2.03125 -1.25,4.414063 -0.66407,2.34375 -1.25,4.726562 -0.58594,2.34375 -0.97657,4.609375 -0.39062,2.226563 -0.39062,4.023438 0,1.757812 0.39062,2.8125 0.39063,1.015625 1.60157,1.015625 1.40625,0 3.125,-0.976563 1.71875,-0.976562 3.47656,-2.34375 1.75781,-1.40625 3.4375,-2.890625 1.67969,-1.484375 2.96875,-2.539062 l 0,7.929687 z m -14.6875,-39.765625 q 0.23437,-0.507812 0.66406,-1.523437 0.42969,-1.054688 0.97656,-2.34375 0.58594,-1.328125 1.21094,-2.851563 0.66406,-1.523437 1.32813,-3.007812 1.52343,-3.515625 3.32031,-7.578125 0.50781,-1.328125 1.52344,-1.914063 1.05468,-0.585937 2.1875,-0.585937 1.01562,0 2.03125,0.390625 1.01562,0.390625 1.79687,1.09375 0.82031,0.703125 1.32813,1.679687 0.50781,0.976563 0.50781,2.148438 0,1.835937 -1.44531,3.789062 -0.74219,1.015625 -1.71875,2.265625 -0.9375,1.210938 -1.99219,2.578125 -1.01563,1.328125 -2.10938,2.65625 -1.05468,1.328125 -2.03125,2.539063 -0.97656,1.171875 -1.79687,2.148437 -0.78125,0.976563 -1.25,1.5625 -0.66406,0.78125 -1.32813,1.132813 -0.66406,0.3125 -1.32812,0.3125 -0.9375,0 -1.60156,-0.703125 -0.66407,-0.742188 -0.66407,-1.914063 0,-0.429687 0.0781,-0.898437 0.11719,-0.46875 0.3125,-0.976563 z"
           style="font-size:80px;font-family:Pacifico;fill:#000000"
           id="path3534" />
        <path
           d="m 288.59375,-18.817859 q 0,-2.578125 0.3125,-5.9375 0.3125,-3.398437 0.78125,-6.875 0.46875,-3.515625 1.05469,-6.757812 0.58593,-3.242188 1.13281,-5.546875 0.42969,-1.796875 1.64062,-3.007813 1.25,-1.210937 3.35938,-1.210937 2.10937,0 2.92969,1.289062 0.82031,1.289063 0.82031,3.4375 0,0.585938 -0.11719,1.601563 -0.11719,0.976562 -0.3125,2.1875 -0.15625,1.171875 -0.35156,2.460937 -0.19531,1.25 -0.39063,2.34375 -0.15625,1.054688 -0.27343,1.875 -0.11719,0.78125 -0.11719,1.054688 l 0.78125,0 q 0.23437,-0.429688 0.74219,-1.367188 0.50781,-0.976562 1.17187,-2.226562 0.66406,-1.25 1.40625,-2.617188 0.78125,-1.40625 1.44531,-2.65625 0.66407,-1.289062 1.21094,-2.265625 0.54688,-0.976562 0.82031,-1.445312 1.25,-2.109375 2.85157,-2.890625 1.60156,-0.78125 3.55468,-0.78125 1.95313,0 3.08594,1.640625 1.17188,1.640625 1.17188,4.53125 0,0.429687 -0.19532,1.445312 -0.15625,1.015625 -0.42968,2.421875 -0.27344,1.40625 -0.625,3.085938 -0.3125,1.679687 -0.58594,3.4375 -0.27344,1.757812 -0.46875,3.476562 -0.15625,1.71875 -0.15625,3.164063 0,2.421875 0.58594,3.984375 0.625,1.5625 1.91406,1.5625 0.58594,0 1.32812,-0.351563 0.78125,-0.351562 1.64063,-0.898437 0.89844,-0.585938 1.79687,-1.328125 0.9375,-0.742188 1.83594,-1.523438 2.07031,-1.835937 4.33594,-4.140625 l 0.66406,8.75 -1.95312,1.484375 q -1.60157,1.210938 -3.28125,2.421875 -1.64063,1.210938 -3.4375,2.1875 -1.79688,0.9375 -3.75,1.5625 -1.95313,0.585938 -4.10157,0.585938 -2.14843,0 -3.63281,-3.085938 -1.44531,-3.125 -1.44531,-9.101562 0,-2.34375 0.3125,-5.039063 0.3125,-2.734375 0.78125,-5.859375 l -0.625,0 -10.23438,20.3125 q -0.78125,1.601563 -1.75781,2.1875 -0.97656,0.585938 -2.26562,0.585938 -1.60157,0 -2.57813,-0.664063 -0.97656,-0.703125 -1.52344,-1.835937 -0.50781,-1.171875 -0.70312,-2.617188 -0.15625,-1.484375 -0.15625,-3.046875 z"
           style="font-size:80px;font-family:Pacifico;fill:#000000"
           id="path3536" />
      </g>
    </g>
  </g>
  <g
     transform="matrix(0.89127,0,0,0.89127,-93.188,-348.81536)"
     id="g18">
    <g
       transform="translate(-5,-8.0316)"
       id="g20"
       style="clip-rule:evenodd;fill:#1a5811;fill-rule:evenodd">
      <path
         d="m 200.24,458.7 c -0.10442,3.446 -0.32252,9.0598 -0.29081,10.802 0.07,3.8188 0.33064,10.368 0.84573,14.306 2.2994,-2.3253 3.0666,-7.2636 3.2766,-11.052 l -0.39213,-0.24943 -0.25755,0.26026 -0.25716,0.26064 -0.006,-0.63923 c 0.0592,-1.0588 0.85656,-5.4 0.65895,-6.1483 l -0.20148,-0.76375 -0.1802,0.11601 -1.1965,-7.0296 3.7994,4.352 -0.26064,0.39019 1.4583,-1.8477 c 0.0193,4.8401 0.96136,9.7459 3.799,10.271 l 0.8554,-3.3675 0.0522,7.1263 3.1149,2.8713 0.2444,-0.19181 0.63537,-4.2399 -0.0472,-3.6695 c 0.13496,-8.5962 -6.0141,-15.52 -12.254,-16.121 l 4.5721,-1.6362 -0.0716,-0.4335 3.9092,0.21578 c 0.46096,-1.9587 2.1582,-0.6779 3.4108,-0.27495 0.91572,0.29467 3.2116,0.61874 4.4344,0.40102 l -1.6161,-2.364 3.4765,1.4347 c -0.48842,-2.5817 -6.8529,-4.3687 -9.9218,-3.9004 l -0.72508,0.11021 c -2.2425,0.34224 -3.2456,1.0495 -4.9472,1.7696 l -3.9379,3.1803 -0.0487,-0.10171 c 0.13226,-8.4113 -5.0964,-15.055 -11.568,-14.068 l -1.9374,0.29583 -5.646,1.7081 -0.007,0.26567 4.6409,0.21965 0.005,0.3956 -1.8295,2.1517 0.0329,0.29622 5.0296,-0.077 -1.2808,1.599 -0.087,0.37356 3.8331,0.51277 -0.18678,1.1234 2.2959,0.25484 0.45864,1.98 1.7456,1.9258 -2.357,-1.3419 c -2.2526,-0.31903 -3.5689,-0.91727 -6.564,-0.46057 l -0.96832,0.14811 c -4.0999,0.62493 -12.721,5.9105 -13.49,9.8514 l 4.7295,-3.5508 -2.2723,4.1057 c 1.6323,-0.20457 4.7279,-1.6466 5.97,-2.461 1.6996,-1.1149 4.033,-3.6873 4.5678,-1.0499 l 5.2566,-1.9703 -0.11486,0.65779 4.4561,0.31324 c -3.5341,0.56575 -7.0037,1.2889 -9.684,2.7572 -4.9406,2.7077 -4.0086,6.1947 -4.1339,14.212 l 0.21888,0.16861 4.1776,-7.7025 -0.21733,-0.16744 0.38709,-0.0584 1.1566,2.2309 2.8586,-3.9147 -0.0998,-0.21231 2.0917,0.5151 1.2912,-2.3268 1.6555,-0.33683 c 0.21269,-0.96638 0.9428,-1.6903 1.8535,-2.2638 -15.551,34.132 -14.456,72.262 -15.792,75.481 l 7.0103,0 c -1.0453,-7.2353 -2.9456,-42.224 10.583,-75.418 z"
         id="path22"
         inkscape:connector-curvature="0" />
      <path
         d="m 159.22,424.92 c 8.9353,49.211 -4.1908,99.642 -7.8142,109.2 l 9.9876,0 c -0.90142,-4.7782 11.834,-57.676 0.35732,-108.76 1.0986,1.0484 1.8999,2.2483 1.908,3.6289 l 2.2093,0.94319 1.1037,3.5504 3.0728,-0.0905 -0.20225,0.26026 2.8152,6.1727 2.2816,-2.7027 0.52322,0.19374 -0.35268,0.16474 3.5218,11.723 0.35693,-0.16668 c 2.2244,-10.967 4.5686,-15.448 -1.5144,-20.584 -3.299,-2.7858 -7.9233,-4.7871 -12.684,-6.5918 l 6.3096,0.87667 0.0371,-0.93004 6.7442,4.2236 c 1.5356,-3.4394 4.0214,0.7506 6.0586,2.7673 1.4888,1.4745 5.3753,4.3451 7.5919,5.1022 l -1.9413,-6.2624 5.5358,6.2241 c 0.10712,-5.5972 -10.338,-15.325 -15.871,-17.377 l -1.3071,-0.48493 c -4.0419,-1.4989 -6.0566,-1.0689 -9.2954,-1.2924 l -3.6904,1.1396 3.0129,-2.1149 1.2317,-2.5654 3.2793,0.32406 0.0754,-1.5863 5.5013,0.42228 -0.009,-0.53482 -1.3082,-2.555 6.994,1.5766 0.13496,-0.39367 -1.9096,-3.4692 0.12568,-0.5383 6.5404,1.058 0.07,-0.36428 -7.3664,-3.98 -2.6138,-0.96948 c -8.7334,-3.2387 -18.017,4.2886 -20.351,15.795 l -0.0982,0.12413 -4.5411,-5.4874 c -2.1582,-1.4792 -3.3458,-2.7371 -6.3722,-3.859 l -0.97838,-0.36312 c -4.142,-1.536 -13.556,-0.96136 -15.01,2.4146 l 5.2798,-0.93893 -2.9622,2.7507 c 1.6412,0.65354 4.9406,0.88402 6.3061,0.74983 1.8686,-0.18291 4.6196,-1.4328 4.678,1.3728 l 5.518,0.84961 -0.22932,0.57078 5.8888,3.5682 c -8.8847,-1.007 -19.537,6.6332 -21.922,18.393 l -1.164,4.9886 -0.38285,5.9666 0.2823,0.33257 5.2055,-3.0032 2.2058,-9.6998 0.18523,4.8416 c 4.1161,0.11408 6.9001,-6.2987 8.3758,-12.891 l 1.4799,2.946 -0.24634,-0.60752 6.6035,-4.8219 -3.7735,9.2327 -0.21656,-0.21037 -0.51007,0.98224 c -0.49963,0.96214 -0.68641,7.1139 -0.92153,8.5745 l -0.19954,0.8701 -0.28153,-0.43041 -0.28152,-0.42963 -0.62067,0.22429 c -0.84071,5.2264 -1.2502,12.183 1.2618,16.026 1.8984,-5.2179 4.2221,-14.07 5.463,-19.256 0.56731,-2.3659 1.9428,-10.083 2.8296,-14.812 z"
         id="path24"
         inkscape:connector-curvature="0" />
      <path
         d="m 127.83,470.05 c 0.0887,2.9274 0.27398,7.6963 0.24704,9.1763 -0.0595,3.244 -0.28088,8.8077 -0.71845,12.153 -1.9533,-1.9753 -2.6051,-6.1704 -2.7835,-9.3885 l 0.33312,-0.21189 0.21878,0.22109 0.21846,0.22141 0.005,-0.54303 c -0.0503,-0.89946 -0.72765,-4.5873 -0.55978,-5.223 l 0.17116,-0.6488 0.15308,0.0985 1.0164,-5.9717 -3.2276,3.697 0.22141,0.33147 -1.2388,-1.5696 c -0.0164,4.1116 -0.81667,8.2791 -3.2273,8.7252 l -0.72666,-2.8607 -0.0443,6.0538 -2.6461,2.4392 -0.20762,-0.16295 -0.53974,-3.6018 0.0401,-3.1172 c -0.11465,-7.3024 5.109,-13.184 10.41,-13.695 l -3.884,-1.3899 0.0608,-0.36826 -3.3209,0.18331 c -0.39159,-1.6639 -1.8334,-0.57588 -2.8975,-0.23357 -0.7779,0.25032 -2.7283,0.52562 -3.767,0.34066 l 1.3728,-2.0082 -2.9533,1.2188 c 0.41491,-2.1931 5.8215,-3.7112 8.4286,-3.3134 l 0.61595,0.0936 c 1.905,0.29074 2.7572,0.89158 4.2026,1.5033 l 3.3452,2.7017 0.0414,-0.0864 c -0.11235,-7.1454 4.3294,-12.789 9.8271,-11.951 l 1.6458,0.25131 4.7962,1.451 0.006,0.22569 -3.9424,0.18659 -0.004,0.33606 1.5542,1.8278 -0.028,0.25164 -4.2726,-0.0654 1.088,1.3584 0.0739,0.31734 -3.2562,0.43559 0.15867,0.95433 -1.9504,0.21649 -0.38961,1.682 -1.4829,1.636 2.0023,-1.1399 c 1.9136,-0.27102 3.0318,-0.77922 5.5761,-0.39126 l 0.82259,0.12582 c 3.4829,0.53088 10.807,5.021 11.46,8.3688 l -4.0177,-3.0164 1.9303,3.4878 c -1.3866,-0.17378 -4.0164,-1.3988 -5.0715,-2.0906 -1.4438,-0.94709 -3.426,-3.1323 -3.8804,-0.8919 l -4.4654,-1.6738 0.0976,0.55879 -3.7854,0.2661 c 3.0023,0.4806 5.9496,1.0949 8.2266,2.3423 4.197,2.3002 3.4053,5.2624 3.5118,12.073 l -0.18594,0.14323 -3.5489,-6.5433 0.18463,-0.14224 -0.32884,-0.0496 -0.98257,1.8952 -2.4284,-3.3255 0.0848,-0.18035 -1.7769,0.43757 -1.0969,-1.9766 -1.4063,-0.28614 c -0.18068,-0.82094 -0.80091,-1.4359 -1.5746,-1.9231 13.211,28.995 12.28,61.387 13.416,64.121 l -5.9552,0 c 0.88796,-6.1464 2.5022,-35.869 -8.99,-64.068 z"
         id="path26"
         inkscape:connector-curvature="0" />
    </g>
  </g>
  <g
     transform="translate(-133.305,-406.01496)"
     id="g28">
    <g
       transform="translate(473.15,525.63)"
       class="logo-entity"
       id="g30">
      <g
         class="logo-entity-inner"
         id="g32">
        <g
           style="font-size:30px;font-family:Montserrat;fill:#000000"
           id="text34">
          <path
             d="M 16.860352,-16.362305 10.239258,0 7.4707031,0 0.89355469,-16.362305 l 2.98828121,0 5.0683594,13.0224612 5.0244137,-13.0224612 2.885743,0 z"
             style="font-size:30px;font-family:Montserrat;fill:#000000"
             id="path3539" />
          <path
             d="m 23.422852,-19.101562 -3.105469,0 0,-2.856446 3.105469,0 0,2.856446 z M 23.24707,0 l -2.753906,0 0,-16.362305 2.753906,0 0,16.362305 z"
             style="font-size:30px;font-family:Montserrat;fill:#000000"
             id="path3541" />
          <path
             d="M 42.758789,-16.362305 36.137695,0 l -2.768554,0 -6.577149,-16.362305 2.988281,0 5.06836,13.0224612 5.024414,-13.0224612 2.885742,0 z"
             style="font-size:30px;font-family:Montserrat;fill:#000000"
             id="path3543" />
          <path
             d="m 59.824219,-7.8955078 -12.055664,0 q 0,1.5087891 0.454101,2.6367187 0.454102,1.1132813 1.245117,1.8310547 0.761719,0.703125 1.801758,1.0546875 1.054688,0.3515625 2.314453,0.3515625 1.669922,0 3.354493,-0.6591797 1.699218,-0.6738281 2.416992,-1.3183593 l 0.146484,0 0,3.00292965 q -1.391601,0.5859375 -2.841797,0.98144531 -1.450195,0.39550782 -3.046875,0.39550782 -4.072265,0 -6.357422,-2.19726558 -2.285156,-2.2119141 -2.285156,-6.2695313 0,-4.0136715 2.182617,-6.3720705 2.197266,-2.358398 5.771485,-2.358398 3.310547,0 5.097656,1.933593 1.801758,1.933594 1.801758,5.4931646 l 0,1.4941406 z m -2.680664,-2.1093752 q -0.01465,-2.167969 -1.098633,-3.354492 -1.069336,-1.186523 -3.266602,-1.186523 -2.211914,0 -3.530273,1.30371 -1.303711,1.303711 -1.479492,3.237305 l 9.375,0 z"
             style="font-size:30px;font-family:Montserrat;fill:#000000"
             id="path3545" />
          <path
             d="m 74.208984,-13.359375 -0.146484,0 q -0.615234,-0.146484 -1.201172,-0.205078 -0.571289,-0.07324 -1.362305,-0.07324 -1.274414,0 -2.460937,0.571289 -1.186524,0.55664 -2.285156,1.450195 l 0,11.616211 -2.753907,0 0,-16.362305 2.753907,0 0,2.416992 q 1.640625,-1.318359 2.885742,-1.860351 1.259765,-0.556641 2.563476,-0.556641 0.717774,0 1.040039,0.04395 0.322266,0.0293 0.966797,0.131836 l 0,2.827148 z"
             style="font-size:30px;font-family:Montserrat;fill:#000000"
             id="path3547" />
          <path
             d="m 90.776367,-8.1738281 q 0,3.9990234 -2.050781,6.3134765 -2.050781,2.31445316 -5.493164,2.31445316 -3.47168,0 -5.522461,-2.31445316 -2.036133,-2.3144531 -2.036133,-6.3134765 0,-3.9990239 2.036133,-6.3134769 2.050781,-2.329101 5.522461,-2.329101 3.442383,0 5.493164,2.329101 2.050781,2.314453 2.050781,6.3134769 z m -2.841797,0 q 0,-3.1787109 -1.245117,-4.7167969 -1.245117,-1.552734 -3.457031,-1.552734 -2.241211,0 -3.486328,1.552734 -1.230469,1.538086 -1.230469,4.7167969 0,3.0761719 1.245117,4.6728515 1.245117,1.5820313 3.47168,1.5820313 2.197265,0 3.442383,-1.5673828 1.259765,-1.5820313 1.259765,-4.6875 z"
             style="font-size:30px;font-family:Montserrat;fill:#000000"
             id="path3549" />
        </g>
      </g>
    </g>
    <g
       id="g36">
      <path
         d="m 578.58,513.49 c 0.79949,-0.96962 1.0797,-1.3956 0.51233,-1.5317 0,0 -0.7186,0.0656 -1.5181,0.58836 -0.36806,0.35978 -0.6012,0.63507 -0.72148,0.84067 l -0.0223,1.5321 c 0.50722,0.13676 1.0532,-0.5849 1.7496,-1.4294 z m -2.4521,0.78959 c -0.41575,-0.50425 -1.7163,-0.84774 -1.9505,-0.65427 -0.23417,0.19346 0.68629,0.84957 1.1023,1.3538 0.35081,0.42582 0.78051,0.67097 1.0472,0.62089 l 0,-1.0376 c -0.0578,-0.0949 -0.12211,-0.18982 -0.19895,-0.28289 z m 0.19895,-5.2319 0,5.5143 0,1.0376 0,2.0761 0.50334,0 0,-2.7558 0,-2.4027 0,-3.4682 z"
         id="path38"
         inkscape:connector-curvature="0"
         style="fill:#0d3000" />
      <path
         d="m 579.79,505.67 c 0,-0.10026 -0.13414,-0.19127 -0.3521,-0.25962 0.20039,-0.10667 0.31432,-0.2204 0.29484,-0.31881 -0.0124,-0.0622 -0.0771,-0.11083 -0.17978,-0.14537 0.0543,-0.0679 0.0767,-0.13077 0.0584,-0.18361 -0.0262,-0.0755 -0.13025,-0.11974 -0.28664,-0.13367 0.12198,-0.12879 0.17647,-0.24312 0.1371,-0.32112 -0.0797,-0.15771 -0.51284,-0.11796 -1.0331,0.0759 0.37501,-0.418 0.56628,-0.81111 0.43617,-0.93812 -0.0731,-0.0713 -0.23519,-0.0446 -0.44033,0.0551 0.0769,-0.22614 0.0802,-0.39601 -0.009,-0.45632 -0.10587,-0.0716 -0.3184,0.0284 -0.561,0.24022 0.0402,-0.28671 0.007,-0.49198 -0.10626,-0.5359 -0.0729,-0.028 -0.16901,0.0148 -0.27462,0.1099 -0.0285,-0.13671 -0.0808,-0.22548 -0.1568,-0.24351 -0.12944,-0.0309 -0.29634,0.14801 -0.44673,0.44634 -0.0717,-0.33406 -0.1914,-0.55321 -0.32706,-0.55321 -0.10871,0 -0.20719,0.14128 -0.27892,0.36966 -0.11306,-0.20269 -0.23439,-0.31827 -0.33901,-0.29879 -0.0872,0.0162 -0.14887,0.12456 -0.18268,0.29265 -0.0939,-0.0899 -0.18156,-0.13196 -0.2519,-0.10911 -0.0545,0.0176 -0.0929,0.0725 -0.11631,0.15475 -0.10613,-0.0787 -0.19953,-0.1101 -0.26676,-0.0785 -0.16261,0.0765 -0.12252,0.49171 0.0765,0.99102 -0.41768,-0.33961 -0.80371,-0.50855 -0.93125,-0.38683 -0.0657,0.0626 -0.0513,0.19279 0.0248,0.35955 -0.19814,-0.0528 -0.34509,-0.0475 -0.40097,0.0293 -0.0811,0.11122 0.0493,0.34523 0.31128,0.60591 -0.35612,-0.0633 -0.61819,-0.0384 -0.66931,0.0851 -0.0288,0.0695 0.0145,0.16115 0.11102,0.26187 -0.13922,0.0277 -0.22964,0.0779 -0.24813,0.15052 -0.0318,0.12364 0.14953,0.28261 0.45287,0.42653 -0.32547,0.0697 -0.53728,0.18129 -0.53722,0.30737 0,0.10541 0.14723,0.20079 0.38525,0.27013 -0.22039,0.11149 -0.34647,0.23209 -0.32593,0.33558 0.0163,0.0816 0.12185,0.14002 0.28637,0.17331 -0.14365,0.11498 -0.21616,0.22409 -0.18704,0.30797 0.0207,0.0593 0.0903,0.0989 0.19464,0.12021 -0.0387,0.0689 -0.0491,0.12931 -0.0253,0.17654 0.0764,0.15124 0.47831,0.1208 0.97016,-0.053 -0.33301,0.39073 -0.49601,0.74685 -0.3733,0.86639 0.0684,0.0667 0.21425,0.0482 0.40044,-0.0358 -0.0465,0.17733 -0.0382,0.3085 0.0375,0.35988 0.10759,0.0729 0.32554,-0.0317 0.57321,-0.25084 -0.0666,0.34608 -0.0413,0.60128 0.0872,0.65075 0.0719,0.0277 0.16664,-0.0137 0.27079,-0.10646 0.0286,0.1348 0.0808,0.2223 0.15627,0.24027 0.13321,0.0317 0.30612,-0.15791 0.45981,-0.47217 0.0717,0.33222 0.191,0.55024 0.3262,0.55024 0.10515,0 0.20052,-0.13249 0.27152,-0.34734 0.11426,0.20752 0.2373,0.32607 0.3431,0.30632 0.0597,-0.0111 0.1072,-0.0661 0.1424,-0.15263 0.0996,0.1 0.19272,0.14748 0.26676,0.12351 0.083,-0.0268 0.12899,-0.13884 0.14035,-0.305 0.10323,0.0749 0.19405,0.10415 0.25976,0.0732 0.16373,-0.0771 0.12173,-0.49726 -0.0808,-1.0011 0.42243,0.34614 0.81468,0.51998 0.94301,0.39733 0.0767,-0.0732 0.045,-0.23803 -0.0678,-0.44621 0.21683,0.0637 0.37911,0.0631 0.43835,-0.0184 0.068,-0.0933 -0.0131,-0.27317 -0.19536,-0.48247 0.29615,0.0384 0.50815,0.007 0.55359,-0.10283 0.0288,-0.0695 -0.0145,-0.16122 -0.11108,-0.26201 0.13922,-0.0277 0.2297,-0.0778 0.24833,-0.15032 0.0328,-0.12892 -0.16465,-0.29609 -0.49145,-0.44469 0.35869,-0.0686 0.59561,-0.18605 0.59561,-0.31953 z m -3.2463,1.1347 c -0.63484,0 -1.1495,-0.51463 -1.1495,-1.1495 0,-0.63491 0.51463,-1.1495 1.1495,-1.1495 0.63483,0 1.1495,0.51463 1.1495,1.1495 0,0.63483 -0.51464,1.1495 -1.1495,1.1495 z"
         id="path40"
         inkscape:connector-curvature="0"
         style="fill:#d3d3d3;stroke:#696969;stroke-width:0.1" />
      <path
         style="fill:#ffff00;stroke:#585800;stroke-width:0.1"
         d="m 577.4266,505.64999 a 0.88661999,0.88661999 0 0 1 -0.88662,0.88662 0.88661999,0.88661999 0 0 1 -0.88662,-0.88662 0.88661999,0.88661999 0 0 1 0.88662,-0.88662 0.88661999,0.88661999 0 0 1 0.88662,0.88662 z"
         id="circle42" />
      <path
         d="m 572.98,506.5 c 0,-0.3028 -0.14282,-1.3819 -0.28926,-1.8691 -0.1537,-0.51161 0.397,-1.8992 0.397,-1.8992 -0.28755,-0.19106 -1.3386,0.17067 -1.3386,0.17067 0,0 0.0412,-0.29041 -0.89393,-0.29041 -0.8207,0 -0.876,0.24331 -0.876,0.24331 0,0 -1.0175,-0.37431 -1.4158,-0.12853 0,0 0.52381,1.4355 0.39414,1.9732 -0.11631,0.48262 -0.22672,1.5356 -0.22672,1.8001 0,1.2667 0.95113,1.6214 2.1246,1.6214 1.1733,0 2.1246,-0.35467 2.1246,-1.6214 z"
         id="path44"
         inkscape:connector-curvature="0"
         style="fill:#990000" />
      <g
         transform="matrix(0.61591,0,0,0.61591,215.96,192.8)"
         id="g46"
         style="fill:#0d3000">
        <path
           d="m 574.79,522.28 c 0.64086,0.3644 0.30247,1.7052 -0.41114,1.9842 -0.87027,0.34148 -1.4062,-0.20588 -1.7102,-0.89752 -0.77275,-1.7548 -0.45975,-3.7331 -0.45975,-3.7331 0,0 0.5904,1.5155 2.5811,2.6464 z"
           id="path48"
           inkscape:connector-curvature="0" />
        <path
           d="m 576.45,512.46 -0.85758,0 0,5.8859 c 0,0 -0.32309,0.41763 -0.80215,0.0492 -0.0693,-0.0533 0.11507,0.36408 0.33292,0.74207 0.21786,0.37799 0.46923,0.71663 0.46923,0.71663 l 0,7.7187 0.85758,0 0,-1.5685 c 0.63962,-0.68111 0.86067,-1.6539 0.86067,-1.6539 -0.24149,0.30712 -0.62879,0.33003 -0.86067,0.31177 0.003,-3.5433 5.4e-4,-6.1907 0,-9.374 0.63962,-0.68173 0.86067,-1.6542 0.86067,-1.6542 -0.24149,0.30712 -0.62879,0.33003 -0.86067,0.31176 z"
           id="path50"
           inkscape:connector-curvature="0" />
      </g>
    </g>
    <g
       transform="matrix(0.70902,0,0,0.61591,161.64,191.71)"
       id="g52"
       style="fill:none;stroke:#0d3000;stroke-width:1px">
      <path
         d="m 573.46,529.51 15.357,0"
         id="path54"
         inkscape:connector-curvature="0" />
      <path
         d="m 573.46,531.07 15.357,0"
         id="path56"
         inkscape:connector-curvature="0" />
    </g>
  </g>
</svg>
